<?xml version="1.0" standalone="no"?>
<!DOCTYPE svg PUBLIC "-//W3C//DTD SVG 20010904//EN"
 "http://www.w3.org/TR/2001/REC-SVG-20010904/DTD/svg10.dtd">
<svg version="1.0" xmlns="http://www.w3.org/2000/svg"
 width="1024.000000pt" height="1024.000000pt" viewBox="0 0 1024.000000 1024.000000"
 preserveAspectRatio="xMidYMid meet">
<metadata>
Created by potrace 1.14, written by Peter Selinger 2001-2017
</metadata>
<g transform="translate(0.000000,1024.000000) scale(0.100000,-0.100000)"
fill="#000000" stroke="none">
<path d="M4520 9069 c-397 -47 -474 -63 -775 -159 -150 -48 -197 -64 -270 -95
-16 -7 -50 -21 -75 -30 -80 -30 -372 -176 -468 -234 -51 -31 -100 -61 -110
-66 -212 -128 -404 -279 -622 -490 -209 -203 -246 -242 -312 -329 -34 -44 -81
-103 -103 -131 -34 -40 -139 -194 -190 -277 -5 -9 -29 -48 -52 -86 -66 -109
-185 -345 -246 -487 -95 -225 -211 -612 -242 -805 -7 -47 -24 -148 -36 -225
-21 -126 -24 -172 -24 -455 0 -394 19 -561 105 -918 198 -819 705 -1603 1350
-2090 515 -388 1087 -650 1690 -772 225 -46 377 -61 654 -67 307 -6 464 4 721
47 671 114 1247 360 1780 762 618 466 1061 1085 1313 1834 77 228 131 470 169
759 27 212 25 681 -5 900 -32 227 -65 387 -128 608 -64 223 -95 304 -215 560
-158 339 -269 509 -599 917 -164 202 -298 328 -590 551 -170 130 -240 178
-342 233 -29 15 -71 40 -93 55 -40 26 -293 154 -350 177 -36 14 -78 31 -205
79 -52 20 -104 40 -115 45 -35 17 -109 41 -146 49 -19 4 -42 12 -49 16 -8 5
-32 12 -55 16 -22 4 -60 13 -85 20 -25 6 -67 18 -95 25 -58 15 -208 39 -345
56 -117 13 -738 19 -840 7z m430 -481 c12 -13 24 -35 27 -50 4 -22 30 -40 172
-116 364 -196 376 -202 419 -202 55 0 100 -39 109 -93 5 -35 3 -41 -41 -81
l-46 -43 0 -120 c0 -80 4 -124 13 -135 15 -20 761 -438 976 -548 l44 -22 18
23 c15 21 28 24 98 27 75 4 81 2 105 -22 23 -22 26 -33 26 -94 l0 -68 118 -66
c64 -37 145 -85 180 -107 l62 -41 1 -282 c1 -156 0 -507 -1 -780 l-2 -498 196
0 c180 0 196 1 196 18 0 30 36 78 73 95 105 50 217 -19 217 -136 0 -60 -20
-99 -62 -125 -73 -43 -144 -35 -200 23 l-32 35 -193 0 -193 0 0 -916 c0 -864
-1 -917 -17 -930 -10 -7 -74 -43 -143 -80 -212 -114 -200 -103 -200 -179 0
-52 -4 -69 -23 -91 -30 -34 -104 -44 -161 -20 -21 9 -44 16 -51 16 -13 0 -600
-308 -703 -369 -29 -17 -55 -31 -58 -31 -3 0 -127 -63 -275 -141 -148 -77
-274 -137 -279 -134 -6 4 -9 2 -8 -3 2 -5 -67 -46 -153 -90 -130 -67 -158 -77
-172 -67 -9 6 -14 15 -10 18 3 4 4 7 1 7 -3 0 -12 -8 -19 -17 -8 -9 -9 -14 -4
-11 13 8 42 -8 33 -18 -4 -4 -21 -1 -37 6 l-30 12 22 19 c12 10 17 18 10 19
-6 0 -14 -6 -16 -12 -4 -10 -8 -10 -15 1 -7 10 -9 7 -9 -12 0 -19 6 -27 26
-32 l26 -7 -24 -19 c-24 -20 -46 -26 -37 -10 4 5 0 12 -6 15 -7 3 -3 3 9 1 12
-3 24 -2 27 3 11 18 -38 22 -63 6 -15 -10 -21 -11 -16 -3 6 9 3 11 -9 6 -9 -4
-15 -3 -11 2 3 5 0 11 -7 13 -7 3 -5 7 6 11 10 4 15 3 11 -3 -3 -6 -2 -10 3
-10 19 0 20 14 1 47 -11 20 -18 38 -15 41 3 3 12 -9 19 -27 7 -17 16 -28 20
-25 3 4 2 15 -4 25 -9 18 -5 174 6 240 4 21 -1 31 -23 45 -40 26 -52 41 -62
73 -12 44 -1 80 39 119 l36 36 3 162 3 161 -26 17 c-14 9 -34 31 -44 47 l-19
30 -398 -1 c-333 0 -403 2 -419 14 -19 13 -18 15 20 21 22 4 45 12 52 17 13
10 570 5 618 -6 25 -5 26 -5 8 3 -27 12 -31 26 -5 16 9 -3 42 -9 73 -12 56 -5
56 -5 78 31 13 20 29 36 36 36 19 0 25 23 26 103 0 47 3 65 8 52 7 -15 10 -6
16 38 4 31 11 57 15 57 12 0 22 -96 18 -173 -2 -55 0 -68 13 -72 25 -8 69 -77
69 -108 0 -34 -53 -94 -94 -106 -17 -5 -24 -10 -15 -10 25 -1 29 -31 26 -191
-2 -143 -2 -145 20 -148 22 -3 62 14 358 158 88 43 189 90 225 105 36 15 94
40 129 56 35 16 66 27 69 25 2 -3 -20 -16 -49 -30 -30 -14 -77 -38 -104 -53
-28 -16 -80 -41 -115 -57 -36 -16 -109 -51 -162 -78 -54 -26 -98 -45 -98 -42
0 3 -12 -3 -27 -14 -31 -21 -126 -62 -143 -62 -6 0 -18 -7 -26 -15 -12 -12
-13 -22 -4 -56 6 -23 9 -53 5 -68 -7 -30 -53 -81 -72 -81 -17 0 -39 -53 -24
-58 6 -2 11 -27 12 -55 0 -29 4 -73 7 -99 l7 -47 128 65 c71 35 133 61 139 58
6 -4 8 -3 5 3 -4 6 14 20 41 32 26 11 70 34 97 49 50 28 297 158 497 262 155
80 148 71 148 188 0 61 4 102 12 110 19 19 37 -17 39 -78 1 -30 4 -67 8 -83
l6 -27 35 23 c19 13 46 28 60 32 14 4 30 11 35 15 10 7 188 104 350 190 86 45
125 76 125 97 0 14 -56 43 -275 138 -174 75 -234 105 -210 103 11 0 32 2 46 6
26 8 125 -28 329 -119 52 -23 119 -50 147 -59 l53 -18 157 86 c87 46 170 90
186 97 l27 12 0 129 c0 101 -3 128 -14 128 -22 0 -146 -59 -146 -70 0 -6 -9
-10 -20 -10 -22 0 -81 -27 -90 -40 -7 -11 -69 -20 -87 -13 -12 5 -12 7 -1 14
11 8 11 10 -1 18 -9 6 13 22 78 57 67 36 90 53 86 64 -5 12 -3 12 6 3 9 -9 28
-4 83 22 39 19 79 36 89 39 16 5 17 25 17 236 l0 230 -80 0 c-79 0 -80 0 -80
-25 0 -22 4 -25 38 -25 38 0 38 0 34 -35 -4 -32 -7 -35 -38 -35 -31 0 -34 -3
-34 -30 0 -29 2 -30 45 -30 41 0 45 -2 45 -24 0 -22 -5 -24 -50 -28 -28 -1
-50 0 -50 4 0 3 -12 11 -27 16 l-28 10 28 11 c22 9 27 17 27 46 l0 35 -89 0
-89 0 -7 -117 c-8 -147 -13 -162 -16 -53 -1 47 -3 92 -5 100 -1 8 -2 52 -3 96
l-1 81 -141 8 c-89 4 -137 10 -128 16 12 7 11 9 -2 9 -9 0 -16 6 -16 14 0 9
17 14 61 15 81 2 126 11 127 25 0 6 2 19 4 30 2 10 -8 29 -22 42 l-26 24 32 0
31 0 0 -61 0 -61 38 7 c20 4 38 8 39 8 0 1 5 121 9 267 4 146 11 254 15 240 4
-14 7 -136 8 -272 l1 -248 74 0 c41 0 81 3 90 6 14 5 16 54 16 449 l0 443 -75
7 c-74 7 -75 8 -75 36 0 28 0 28 73 31 l72 3 2 353 3 352 -43 0 c-23 0 -59 -4
-79 -9 -30 -7 -38 -6 -38 5 0 7 16 16 38 19 20 4 55 10 77 14 l40 7 0 67 c0
37 -2 176 -3 310 l-2 243 -89 46 c-87 46 -89 46 -127 33 -43 -15 -83 -19 -46
-5 34 14 27 27 -35 58 -32 16 -76 40 -98 54 -23 14 -68 39 -100 56 -59 29 -60
29 -93 12 -18 -10 -55 -27 -82 -39 l-50 -22 -1 -87 c-2 -135 -16 -167 -18 -38
-1 82 -4 107 -13 103 -7 -2 -30 -10 -50 -18 -34 -12 -38 -17 -38 -47 0 -42
-25 -87 -57 -101 -15 -7 -23 -19 -23 -36 0 -18 -5 -25 -20 -25 -15 0 -20 7
-20 28 0 23 -7 32 -35 45 -20 9 -38 25 -41 34 -3 10 -8 25 -11 33 -4 8 -5 22
-4 31 1 11 -38 36 -128 82 l-129 67 -67 -32 -68 -31 57 -29 c66 -33 75 -48 16
-25 -73 28 -129 26 -204 -5 -38 -15 -71 -27 -72 -25 -2 2 29 18 69 37 40 18
74 36 77 40 3 3 43 22 90 42 82 35 84 37 58 47 -23 9 -36 6 -74 -14 -26 -14
-52 -25 -58 -25 -6 0 -21 -11 -34 -25 -13 -13 -60 -44 -104 -67 -44 -24 -83
-49 -85 -55 -3 -7 -11 -13 -19 -13 -8 0 -14 -4 -14 -10 0 -5 -13 -10 -30 -10
-38 0 -39 16 -2 25 16 3 58 29 94 58 37 29 75 57 85 63 16 10 7 17 -71 53
l-88 41 -94 -42 -93 -43 6 -40 c5 -38 2 -43 -36 -78 l-41 -37 0 -109 c0 -63 4
-112 10 -116 6 -3 10 -22 10 -41 0 -21 -4 -33 -10 -29 -5 3 -10 17 -10 31 0
13 -4 24 -9 24 -19 0 -49 88 -55 162 -6 72 -9 78 -47 117 l-41 40 -38 -24
c-22 -14 -57 -28 -79 -31 -25 -4 -41 -12 -41 -20 0 -18 -44 -9 -80 17 -14 9
-55 30 -90 46 -129 58 -120 57 -185 28 -71 -31 -82 -26 -21 10 25 15 46 29 46
31 0 7 -94 52 -116 55 -12 2 -78 -23 -148 -56 -132 -63 -134 -65 -139 -138
l-2 -38 160 -65 c292 -118 300 -121 323 -113 12 5 22 12 22 17 0 4 13 16 30
25 29 18 71 20 315 18 l80 -1 -2 -987 c-4 -1525 -4 -1555 -32 -1633 -114 -323
-384 -499 -703 -459 -111 14 -176 37 -352 125 -210 105 -298 159 -378 233
-116 107 -186 219 -235 378 l-27 88 -4 1048 c-2 576 -7 1047 -11 1047 -5 0 -6
-11 -4 -25 4 -20 2 -24 -16 -20 -15 3 -21 -1 -21 -13 0 -13 -2 -14 -9 -4 -13
21 -32 -11 -41 -70 l-8 -53 1 55 c1 44 -2 56 -16 58 -21 4 -23 42 -2 42 8 0
16 5 16 10 1 6 3 19 4 30 1 11 3 70 4 131 l1 111 48 -6 c26 -4 75 -7 108 -8
53 -2 59 -4 47 -17 -13 -12 -12 -16 4 -32 15 -15 40 -20 118 -25 55 -4 102 -8
105 -11 3 -3 3 -449 2 -991 -4 -1137 -3 -1165 58 -1288 70 -143 126 -183 465
-330 145 -63 189 -78 227 -77 60 1 112 19 166 55 51 35 116 131 109 159 -3 10
-2 19 2 19 32 0 34 46 32 1210 -2 987 -4 1157 -16 1166 -11 8 -12 13 -2 23 10
10 8 12 -8 9 -11 -2 -19 -9 -18 -15 6 -28 4 -242 -2 -371 l-8 -142 -48 4 c-33
4 -53 1 -61 -8 -11 -11 -15 -8 -26 18 -12 28 -14 29 -26 14 -7 -10 -15 -15
-19 -12 -8 8 -17 -45 -15 -88 1 -21 6 -38 12 -38 7 0 7 -3 -1 -8 -6 -4 -13
-23 -16 -42 -2 -19 -5 83 -7 228 -1 144 -3 276 -4 293 -1 42 15 64 83 107 51
33 54 37 31 40 -14 2 -125 44 -247 93 -121 49 -227 89 -235 89 -31 0 -38 -24
-38 -122 0 -65 4 -98 11 -98 6 0 82 -25 168 -57 86 -31 170 -60 186 -64 l30
-8 -31 2 c-31 3 -32 1 -38 -41 -3 -25 -6 -92 -6 -149 0 -95 -2 -104 -17 -99
-10 3 -54 15 -98 27 -122 33 -115 24 -115 139 0 60 4 100 10 100 6 0 10 -35
10 -84 0 -97 5 -116 31 -116 17 0 19 8 19 80 0 47 4 80 10 80 6 0 10 -37 10
-90 0 -89 0 -90 24 -90 13 0 31 -3 40 -6 13 -5 16 8 19 83 l3 88 2 -92 c2 -73
5 -93 16 -93 12 0 15 24 18 126 2 69 0 130 -3 135 -5 9 -264 99 -285 99 -11 0
-29 -415 -19 -442 3 -7 47 -23 98 -35 183 -45 249 -65 239 -75 -6 -6 -61 4
-148 27 -196 53 -182 51 -189 23 -4 -14 -5 -42 -3 -64 3 -36 5 -39 43 -46 83
-16 83 -16 77 -43 -4 -21 -6 -23 -16 -11 -6 8 -32 18 -58 21 l-48 7 0 -106 c0
-94 2 -106 18 -107 9 0 41 -4 70 -8 l52 -7 0 76 c0 120 12 260 22 260 6 0 7
-67 3 -174 l-8 -175 39 -6 c22 -4 54 -11 72 -15 l32 -8 0 109 c0 66 -4 109
-10 109 -5 0 -10 5 -10 10 0 6 7 10 15 10 9 0 15 9 15 24 0 36 17 41 18 5 0
-17 9 -37 19 -45 17 -12 17 -13 1 -14 -16 0 -18 -13 -19 -117 -1 -65 -1 -126
0 -135 1 -10 -3 -18 -9 -18 -6 0 -9 4 -6 9 3 5 -28 14 -70 20 -107 16 -104 17
-93 -21 9 -31 14 -516 6 -524 -2 -2 -7 109 -11 248 -4 139 -9 262 -11 273 -2
11 -4 25 -4 31 -1 9 -91 34 -123 34 -15 0 -9 -301 7 -345 14 -37 13 -42 -5
-67 -11 -15 -20 -32 -20 -38 0 -5 -4 -10 -10 -10 -5 0 -7 6 -4 14 3 8 -3 19
-15 25 -36 20 -45 49 -24 79 16 24 18 56 21 321 2 210 -1 297 -9 307 -7 9 -7
14 -1 14 6 0 9 45 7 123 -1 67 -3 209 -4 315 -1 121 -5 192 -11 192 -6 0 -54
16 -108 36 l-97 36 3 137 c2 75 8 138 13 139 5 2 7 8 4 12 -3 5 -1 11 5 15 7
4 10 -44 10 -143 l0 -148 53 -17 c28 -9 69 -25 90 -36 l37 -19 0 100 c0 93 -2
100 -25 121 -13 12 -30 39 -37 61 -12 36 -22 43 -143 107 -71 38 -140 69 -152
69 -22 0 -160 -73 -234 -123 -39 -27 -46 -61 -19 -85 18 -17 10 -14 -65 18
l-50 22 -97 -46 c-92 -42 -110 -59 -90 -81 5 -6 5 -71 1 -145 -4 -74 -8 -205
-8 -291 -1 -169 -1 -169 53 -169 13 0 31 -10 42 -22 19 -21 19 -21 -1 -13 -11
4 -37 10 -58 13 l-38 4 3 -48 c3 -45 5 -49 31 -52 33 -4 26 -22 -9 -22 l-24 0
0 -295 0 -295 69 0 c59 0 69 -3 74 -19 7 -28 -8 -45 -40 -46 -15 -1 -45 -2
-66 -3 l-37 -2 2 -447 3 -448 63 -3 c54 -3 62 -6 62 -22 0 -11 0 -23 0 -27 0
-5 -30 -10 -67 -13 -61 -4 -68 -7 -71 -27 -3 -21 1 -23 36 -23 27 0 48 -8 67
-24 32 -27 29 -29 -59 -41 l-48 -7 6 -41 c4 -23 11 -44 17 -46 26 -9 -27 -26
-71 -23 -45 4 -50 6 -50 28 0 22 4 24 45 24 45 0 45 0 45 36 0 34 -1 35 -32
32 -31 -3 -33 -1 -36 30 -3 31 -2 32 32 32 32 0 36 3 36 25 0 25 -1 25 -80 25
l-80 0 0 -223 0 -223 83 -42 83 -42 64 25 c84 33 88 31 15 -7 l-59 -31 44 -17
c51 -21 239 -117 256 -131 7 -5 40 -23 74 -40 70 -34 78 -50 9 -19 -54 24 -76
27 -57 6 7 -8 16 -12 19 -10 4 2 24 -5 45 -16 22 -10 35 -19 30 -20 -4 0 2 -9
15 -20 l24 -20 -50 19 c-55 21 -194 86 -323 149 -46 23 -91 43 -100 44 -9 2
-19 6 -22 9 -7 9 -126 59 -140 59 -6 0 -10 -46 -10 -124 l0 -124 136 -72 c74
-39 157 -85 185 -101 45 -29 51 -30 86 -18 41 13 312 136 328 149 6 4 27 11
49 14 31 6 42 4 57 -12 17 -19 17 -20 -39 -45 -31 -14 -80 -35 -109 -46 -29
-11 -90 -39 -138 -62 -85 -41 -102 -62 -72 -87 22 -18 373 -192 388 -192 8 0
20 -5 26 -11 6 -6 53 -35 105 -65 l93 -54 3 86 c2 68 7 90 22 107 11 11 23 17
27 13 4 -4 1 -11 -7 -16 -13 -8 -12 -10 2 -10 15 0 18 -14 20 -111 l3 -110
160 -83 c88 -45 235 -121 327 -168 92 -47 164 -89 160 -93 -4 -5 -1 -5 6 -1 7
4 18 3 25 -3 7 -5 54 -31 104 -56 73 -36 91 -49 87 -63 -4 -12 -3 -13 3 -4 8
10 17 9 46 -3 20 -8 37 -20 37 -25 0 -6 9 -10 21 -10 11 0 17 -4 14 -10 -3 -6
1 -7 9 -4 9 3 16 2 16 -4 0 -5 -6 -12 -14 -15 -17 -7 -79 37 -68 48 4 5 1 5
-7 0 -12 -7 -11 -10 2 -20 14 -10 9 -12 -29 -10 -37 1 -43 -1 -30 -10 9 -7 12
-16 8 -20 -4 -5 -1 -5 6 -1 7 4 26 -3 45 -16 17 -12 38 -22 44 -20 18 4 16 -5
-1 -11 -8 -3 -26 3 -40 14 -14 11 -26 18 -26 14 0 -8 -669 334 -947 485 -23
13 -39 28 -36 33 3 6 1 7 -5 3 -6 -4 -85 32 -174 78 -90 47 -218 114 -285 148
l-121 62 -45 -22 c-61 -30 -127 -30 -164 2 -25 21 -28 32 -31 98 l-4 74 -182
100 -181 99 -1 115 c-1 63 -2 476 -3 918 l-1 802 -189 0 -189 0 -16 -25 c-37
-57 -150 -78 -204 -38 -46 34 -72 81 -72 132 0 112 121 186 217 133 34 -18 83
-77 83 -99 0 -10 39 -13 185 -13 l185 0 2 786 3 787 183 101 182 101 0 60 c0
33 6 71 13 85 28 56 147 64 207 13 l30 -25 268 140 c147 77 402 216 567 308
165 92 372 206 460 254 297 162 420 231 434 245 11 11 22 7 70 -20 31 -18 153
-85 271 -149 118 -63 234 -127 257 -141 l41 -25 7 60 c8 66 -2 200 -15 200
-14 0 -33 60 -27 89 6 27 2 31 -101 89 -262 149 -439 238 -458 231 -10 -4 -33
-5 -51 -2 -22 3 -41 -1 -60 -14 -15 -11 -76 -45 -135 -76 -59 -31 -163 -88
-232 -127 -116 -67 -126 -74 -126 -102 0 -42 -40 -78 -85 -78 -51 0 -73 15
-84 56 -19 68 28 121 100 111 33 -4 57 6 206 87 383 210 361 195 368 232 11
61 84 85 125 42z m-1005 -62 c0 -26 -11 -34 -126 -95 -69 -36 -133 -72 -142
-80 -14 -11 -17 -40 -19 -178 l-3 -164 -175 -98 c-96 -53 -272 -150 -390 -216
-118 -65 -260 -144 -315 -175 -55 -32 -156 -87 -225 -122 -69 -36 -178 -93
-243 -127 -73 -38 -125 -60 -136 -56 -14 4 -22 -2 -30 -23 -12 -27 -31 -42
-73 -56 -16 -5 -18 -23 -18 -185 0 -140 4 -190 17 -230 20 -64 11 -101 -31
-116 -25 -8 -31 -6 -52 18 -27 32 -31 64 -9 93 22 29 22 432 -1 475 -31 61 15
139 82 139 29 0 44 -7 69 -35 l33 -34 118 67 c198 113 254 143 254 137 0 -3
23 6 50 21 49 27 64 47 18 24 -22 -11 -22 -10 -3 5 11 8 26 13 33 10 8 -3 103
44 211 103 108 60 268 148 356 197 88 48 215 119 282 157 l123 69 2 167 3 167
160 87 c88 48 165 86 170 84 6 -1 10 -15 10 -30z m2090 -49 l160 -82 5 -173 5
-173 180 -101 c99 -55 205 -114 235 -130 30 -17 136 -77 235 -133 99 -56 259
-146 355 -200 338 -190 365 -206 378 -223 6 -8 12 -11 12 -5 0 6 12 25 26 42
34 41 88 43 133 5 37 -31 42 -83 11 -129 -18 -28 -20 -47 -20 -237 0 -172 3
-213 17 -242 15 -32 15 -36 -1 -60 -31 -48 -106 -24 -106 34 0 15 7 33 15 40
12 10 15 47 15 216 l0 203 -35 17 c-20 9 -41 24 -48 33 -7 10 -66 46 -132 80
-66 35 -167 92 -225 126 -145 86 -341 198 -635 363 -138 76 -300 168 -362 203
l-112 64 -1 170 c0 166 -1 170 -23 181 -191 93 -287 147 -287 163 0 48 21 43
205 -52z m-2019 -196 c16 -32 9 -46 -32 -66 l-35 -17 4 -91 c3 -51 8 -107 12
-125 6 -27 3 -38 -16 -58 -12 -13 -28 -24 -36 -24 -10 0 -13 -22 -13 -87 0
-54 -4 -83 -9 -74 -5 7 -14 10 -20 7 -6 -4 -11 -1 -12 6 -1 7 -4 2 -8 -12 -4
-15 -10 30 -14 113 -7 145 -3 171 33 182 18 6 20 15 20 103 l0 97 36 38 c41
43 72 46 90 8z m1853 -6 l39 -35 4 -98 c2 -71 8 -104 21 -122 21 -30 22 -58 2
-96 -8 -16 -17 -58 -19 -92 -3 -35 -12 -69 -19 -77 -12 -11 -14 -5 -16 43 -4
92 -5 96 -33 124 -34 33 -37 80 -8 105 17 15 20 30 20 99 l0 82 -45 11 c-40
10 -45 14 -45 39 0 61 42 68 99 17z m642 -54 c50 -50 31 -121 -41 -151 -36
-15 -82 0 -105 34 -41 58 7 146 80 146 27 0 44 -8 66 -29z m-3521 -165 c0 -2
-7 -7 -16 -10 -8 -3 -12 -2 -9 4 6 10 25 14 25 6z m713 -135 c4 -4 10 -24 14
-45 8 -49 -16 -76 -69 -76 -28 0 -64 -15 -141 -59 -132 -76 -607 -335 -723
-395 -84 -43 -101 -56 -154 -114 -15 -17 -30 -22 -58 -21 -40 3 -63 -7 -194
-84 l-88 -51 0 -356 c0 -195 4 -360 8 -366 4 -5 21 -16 37 -23 43 -17 81 -53
88 -83 6 -22 3 -27 -19 -32 -20 -5 -39 3 -86 34 -33 22 -66 40 -73 40 -7 0
-16 7 -19 16 -3 9 -6 194 -6 413 l0 396 63 34 c119 66 218 131 252 167 29 30
38 35 64 29 34 -7 29 -9 301 136 444 239 680 374 680 391 0 9 14 28 32 43 30
26 68 28 91 6z m2500 -13 c9 -11 17 -28 17 -37 0 -23 -44 3 691 -409 190 -107
220 -121 251 -116 31 5 37 2 71 -39 20 -25 61 -59 90 -75 50 -28 206 -122 208
-125 5 -9 9 -760 4 -783 -4 -22 -13 -34 -28 -38 -13 -3 -44 -21 -70 -41 -49
-38 -91 -45 -101 -19 -10 26 31 70 97 104 l37 20 0 358 c0 196 -4 362 -8 368
-7 10 -175 109 -217 128 -11 5 -38 10 -59 10 -34 1 -44 6 -64 36 -22 34 -100
82 -422 259 -47 26 -156 87 -243 136 -88 49 -167 89 -177 90 -23 2 -90 37 -90
47 0 5 -10 8 -22 8 -13 0 -38 9 -55 20 -27 16 -33 26 -33 52 0 41 9 54 40 67
32 12 60 5 83 -21z m1112 -173 c47 -46 23 -118 -42 -131 -41 -8 -83 30 -83 76
0 38 39 80 75 80 14 0 37 -11 50 -25z m-960 -915 c-3 -5 -11 -10 -16 -10 -6 0
-7 5 -4 10 3 6 11 10 16 10 6 0 7 -4 4 -10z m-1056 -4 c-2 -1 -19 -8 -36 -14
-37 -12 -45 -6 -10 8 22 9 54 13 46 6z m1021 -1 c0 -9 -59 -35 -77 -34 -10 0
2 9 27 19 53 22 50 21 50 15z m-2846 -31 c21 -8 21 -34 0 -34 -23 0 -55 20
-49 31 7 10 26 12 49 3z m1720 -12 c-17 -9 -29 -22 -27 -28 2 -6 -3 -14 -12
-18 -11 -4 -14 -2 -9 6 5 7 2 9 -8 6 -19 -8 -43 7 -34 21 4 6 19 11 34 12 15
0 36 4 47 9 35 15 41 10 9 -8z m83 12 c-3 -3 -12 -4 -19 -1 -8 3 -5 6 6 6 11
1 17 -2 13 -5z m-172 -85 c44 -28 8 -22 -45 7 -38 21 -41 24 -15 19 17 -4 44
-15 60 -26z m1245 1 c0 -5 -9 -10 -20 -10 -11 0 -20 5 -20 10 0 6 9 10 20 10
11 0 20 -4 20 -10z m-2905 -100 c-7 -11 -35 -1 -35 11 0 6 6 16 13 23 10 12
13 10 20 -6 4 -11 5 -24 2 -28z m188 35 c-3 -9 -8 -14 -10 -11 -3 3 -2 9 2 15
9 16 15 13 8 -4z m2821 6 c8 -12 -16 -30 -56 -41 -29 -8 -31 -8 -15 4 14 11
15 15 5 19 -7 3 -3 6 9 6 12 1 25 6 28 11 8 12 22 13 29 1z m-3064 -21 c0 -5
-4 -10 -10 -10 -5 0 -10 5 -10 10 0 6 5 10 10 10 6 0 10 -4 10 -10z m2970 -34
c0 -2 -9 -6 -20 -9 -11 -3 -18 -1 -14 4 5 9 34 13 34 5z m560 -43 c0 -39 -10
-50 -47 -55 -32 -4 -33 -4 -33 32 0 45 5 50 47 50 29 0 33 -3 33 -27z m-3990
-17 c0 -25 -5 -35 -19 -39 -22 -5 -32 0 -48 30 -20 36 -16 43 27 43 39 0 40
-1 40 -34z m3840 -240 c0 -249 -7 -326 -24 -263 -3 12 -6 138 -6 280 0 222 2
257 15 257 13 0 15 -37 15 -274z m-2300 239 c0 -8 -4 -15 -10 -15 -5 0 -7 7
-4 15 4 8 8 15 10 15 2 0 4 -7 4 -15z m1770 -52 c129 -50 231 -123 303 -218
128 -170 153 -301 144 -760 -6 -327 -14 -377 -84 -515 -102 -202 -293 -334
-526 -365 l-47 -6 29 -42 c16 -23 94 -127 175 -232 80 -104 195 -253 254 -330
59 -76 153 -197 210 -267 l103 -128 -234 0 -235 0 -27 38 c-16 20 -52 66 -80
102 -28 36 -181 229 -338 430 -158 201 -295 374 -305 385 -16 19 -29 20 -227
20 l-210 0 0 190 0 190 430 6 c505 6 499 6 638 97 20 14 37 29 37 34 0 4 -10
2 -23 -7 -43 -28 -161 -38 -327 -28 l-155 10 185 -1 c151 -1 196 3 245 17 33
10 66 19 73 19 20 2 61 59 85 120 18 47 21 78 25 289 2 148 0 263 -7 309 -20
130 -92 230 -197 277 -35 16 -89 18 -526 21 l-488 4 0 184 0 185 523 -3 c504
-3 524 -4 577 -25z m420 -90 c0 -65 -4 -124 -9 -131 -12 -20 -21 35 -21 134
l0 83 -67 -20 c-88 -26 -87 -26 -91 -14 -3 8 141 59 181 64 4 1 7 -52 7 -116z
m234 56 c-7 -11 -64 -12 -64 -1 0 15 9 19 40 14 16 -2 27 -8 24 -13z m-2435
-86 c-1 -37 -3 -42 -8 -23 -7 24 -3 70 5 70 2 0 4 -21 3 -47z m-2437 -112 c28
-25 33 -37 38 -88 l5 -58 155 -6 c231 -9 235 -10 165 -20 -33 -5 -61 -13 -63
-19 -2 -6 -52 -10 -123 -10 -89 0 -118 -3 -113 -12 4 -6 -3 -4 -15 5 -13 8
-29 13 -36 11 -7 -3 -16 -1 -20 5 -3 6 -17 8 -30 5 -34 -8 -91 13 -115 43 -22
28 -27 91 -10 123 29 54 113 65 162 21z m5841 18 c42 -11 77 -56 77 -99 0 -36
-35 -89 -68 -101 -15 -6 -44 -8 -65 -5 -30 5 -44 2 -64 -14 -24 -19 -39 -20
-222 -18 -127 1 -170 4 -121 7 l75 6 -73 6 c-138 12 -101 26 85 32 98 3 193
11 211 18 30 10 32 14 32 55 0 50 20 88 59 109 32 17 28 17 74 4z m-5535 -236
c-43 -2 -113 -2 -155 0 -43 1 -8 3 77 3 85 0 120 -2 78 -3z m2619 -205 c-2
-13 -4 -5 -4 17 -1 22 1 32 4 23 2 -10 2 -28 0 -40z m-2713 10 c25 -23 29 -35
27 -75 -1 -24 -45 -53 -80 -53 -25 0 -61 45 -61 77 0 29 41 73 69 73 11 0 31
-10 45 -22z m4669 5 c-4 -11 -8 -13 -11 -5 -3 9 -20 11 -55 8 -39 -4 -45 -3
-22 3 17 5 44 9 62 10 27 1 31 -2 26 -16z m720 -11 c39 -35 4 -122 -50 -122
-13 0 -35 11 -48 25 -70 69 23 162 98 97z m-2263 -61 l0 -68 -57 -12 c-93 -18
-93 -18 -93 42 0 28 5 59 10 67 7 11 10 2 10 -32 0 -53 7 -56 79 -42 30 6 31
8 31 60 0 30 5 54 10 54 6 0 10 -30 10 -69z m-60 24 c0 -16 -6 -25 -15 -25 -9
0 -15 9 -15 25 0 16 6 25 15 25 9 0 15 -9 15 -25z m218 -10 c21 4 49 9 65 11
46 9 30 -5 -25 -20 -112 -32 -108 -32 -108 4 0 29 1 30 16 15 11 -11 26 -14
52 -10z m-3877 -35 c22 -12 49 -61 49 -89 0 -31 -58 -91 -87 -91 -36 0 -80 29
-94 62 -32 78 57 158 132 118z m4209 -11 c-34 -14 -606 -155 -698 -172 -96
-18 -80 -6 35 26 307 87 768 188 663 146z m-1423 -385 c-3 -3 -201 -44 -213
-44 -2 0 -4 65 -4 143 l0 144 56 12 c31 7 79 21 107 30 l52 18 3 -150 c1 -82
1 -151 -1 -153z m1578 216 c3 -5 -4 -11 -17 -11 -17 -1 -18 -3 -5 -6 15 -4 17
-19 17 -127 0 -188 -18 -209 -190 -221 -52 -3 -100 -11 -108 -17 -8 -7 -16 -8
-23 -1 -8 8 -71 3 -206 -17 -2 0 -3 -8 -4 -17 0 -15 -2 -15 -8 2 -7 18 -16 20
-107 18 -103 -2 -93 3 46 24 l55 8 1 61 c0 33 3 65 7 71 3 5 54 16 112 23
l105 14 0 63 c0 35 -2 63 -5 63 -9 0 -270 -51 -287 -56 -15 -4 -18 -17 -18
-70 0 -50 -3 -64 -15 -64 -12 0 -15 14 -15 65 0 64 0 65 -25 60 -14 -3 -36 -7
-49 -10 -21 -4 -24 -12 -31 -70 -9 -89 -27 -83 -23 7 3 71 3 72 33 79 61 14
384 79 515 103 199 37 236 41 245 26z m-1908 -307 c-2 -21 -4 -4 -4 37 0 41 2
58 4 38 2 -21 2 -55 0 -75z m332 -115 c-1 -84 -5 -166 -9 -183 -4 -16 -8 -25
-9 -18 0 7 -8 10 -16 7 -8 -4 -13 -10 -10 -14 3 -5 -9 -1 -27 7 -23 12 -33 13
-36 5 -5 -15 -42 -16 -42 -2 0 6 -7 10 -15 10 -12 0 -14 -8 -10 -32 4 -18 11
-36 18 -40 8 -5 4 -8 -10 -8 -54 0 -53 -2 -53 201 l0 188 33 5 c17 3 57 10 87
15 111 18 100 33 99 -141z m-643 -424 c1 -115 -1 -196 -3 -181 -3 20 -9 27
-19 23 -12 -5 -14 24 -14 183 0 175 1 189 18 187 15 -3 17 -21 18 -212z
m-1554 129 c22 -20 23 -70 1 -95 -39 -44 -103 -8 -103 59 0 50 62 72 102 36z
m5392 1 c37 -36 3 -114 -49 -114 -50 0 -78 85 -38 116 24 18 68 18 87 -2z
m-5950 -64 l21 -22 -22 11 c-12 6 -25 16 -28 21 -3 6 -12 10 -18 10 -7 0 0
-12 16 -25 36 -32 35 -42 -2 -16 -34 24 -42 26 -35 8 3 -8 -2 -14 -11 -14 -9
0 -14 6 -11 14 7 18 2 16 -19 -7 -17 -18 -17 -20 -2 -14 10 3 17 1 17 -5 0 -6
-8 -11 -17 -12 -11 0 -13 -3 -5 -6 6 -2 9 -10 6 -15 -4 -7 -2 -8 4 -4 7 4 12
1 12 -6 0 -10 3 -9 10 2 5 8 13 11 17 6 4 -5 2 -11 -4 -13 -7 -3 -13 -13 -13
-24 0 -26 43 -25 81 2 34 24 38 18 7 -11 -30 -28 -83 -26 -112 3 -31 31 -29
98 4 127 28 25 75 20 104 -10z m-39 -40 c3 -5 1 -10 -4 -10 -6 0 -11 5 -11 10
0 6 2 10 4 10 3 0 8 -4 11 -10z m-25 -14 c0 -2 -7 -7 -16 -10 -8 -3 -12 -2 -9
4 6 10 25 14 25 6z m5280 -61 c0 -21 -5 -25 -30 -25 -24 0 -30 4 -30 21 0 16
5 20 20 16 11 -3 20 -1 20 4 0 5 5 9 10 9 6 0 10 -11 10 -25z m-4882 -70 c30
-25 31 -25 230 -25 198 0 237 -4 226 -21 -3 -5 -1 -9 4 -9 6 0 12 -7 15 -15 5
-12 -24 -14 -212 -12 l-219 2 -11 -32 c-43 -117 -201 -85 -201 40 0 27 8 42
35 66 45 39 91 41 133 6z m2361 9 l61 -7 0 -33 c0 -18 -6 -36 -12 -41 -17 -10
-178 -4 -200 8 -12 6 -18 21 -18 44 l0 35 54 0 c29 0 81 -3 115 -6z m3515 -15
c87 -40 49 -189 -48 -189 -41 0 -74 24 -95 69 -11 25 -23 36 -38 37 -13 0
-103 1 -201 2 -156 2 -179 4 -179 18 0 12 7 14 31 10 26 -6 28 -5 13 6 -15 11
-13 13 20 16 21 2 111 5 199 6 130 3 167 7 185 20 27 19 77 21 113 5z m-994
-24 c0 -21 -5 -25 -30 -25 -22 0 -30 5 -30 18 0 25 9 32 37 32 18 0 23 -5 23
-25z m-230 -55 c0 -39 -3 -50 -16 -50 -11 0 -14 5 -9 18 4 9 9 32 12 50 8 46
13 40 13 -18z m230 -55 c0 -21 -5 -25 -30 -25 -25 0 -30 4 -30 25 0 21 5 25
30 25 25 0 30 -4 30 -25z m-2777 -71 c60 -4 77 -9 77 -21 0 -14 -14 -15 -102
-8 -105 7 -153 19 -144 34 3 5 25 7 48 5 24 -2 78 -6 121 -10z m262 -10 c53
-6 55 -7 53 -35 -2 -23 -6 -28 -23 -24 -11 2 -49 7 -85 10 -99 9 -110 14 -110
42 0 28 -18 27 165 7z m-1891 -16 c-3 -4 -13 -8 -22 -9 -14 0 -13 -2 3 -9 19
-8 18 -9 -4 -9 -13 -1 -44 -8 -70 -16 -25 -8 -67 -17 -93 -21 -36 -4 -68 -19
-124 -57 -41 -29 -83 -56 -92 -62 -28 -17 -51 -49 -52 -71 -1 -56 -69 -89
-113 -54 -57 45 -16 129 59 119 4 0 10 3 13 8 13 18 92 63 102 58 5 -4 8 -1 7
7 -2 8 5 12 16 11 11 -1 29 5 40 13 11 8 16 14 10 14 -5 0 -15 -5 -22 -12 -6
-6 -14 -9 -17 -6 -8 7 84 64 144 88 35 15 67 19 133 18 48 -1 85 -5 82 -10z
m4103 6 c-3 -3 -12 -4 -19 -1 -8 3 -5 6 6 6 11 1 17 -2 13 -5z m898 -7 c17 -7
64 -34 104 -61 70 -45 74 -49 56 -62 -10 -8 -15 -14 -11 -14 4 0 4 -5 0 -11
-3 -6 -9 -7 -13 -3 -20 28 -161 94 -200 94 -70 0 -111 11 -111 30 0 35 111 52
175 27z m-1950 -67 c3 -5 0 -10 -7 -10 -9 0 -9 -3 2 -10 13 -8 12 -10 -3 -10
-10 0 -16 -4 -13 -9 3 -4 -5 -20 -18 -35 -20 -24 -24 -25 -35 -12 -7 8 -10 20
-6 26 4 6 1 9 -5 8 -6 -2 -23 12 -37 30 l-26 32 71 0 c39 0 74 -4 77 -10z
m-1795 -30 c0 -11 -4 -20 -10 -20 -5 0 -10 9 -10 20 0 11 5 20 10 20 6 0 10
-9 10 -20z m319 16 c-10 -9 -109 -15 -104 -6 3 6 29 10 57 10 28 0 49 -2 47
-4z m121 -15 c0 -8 -90 -3 -99 5 -2 2 19 4 47 4 29 0 52 -4 52 -9z m88 -24 c3
-26 1 -28 -20 -22 -13 4 -23 8 -23 9 0 0 -6 11 -13 24 -13 23 -12 23 20 20 28
-3 34 -7 36 -31z m3428 -13 c23 -15 23 -18 9 -34 -16 -17 -50 -17 -61 1 -5 9
13 49 22 49 2 0 16 -7 30 -16z m58 -45 c20 3 26 0 20 -11 -4 -7 -3 -8 4 -4 15
9 59 -3 65 -18 4 -9 -2 -11 -19 -8 -17 3 -33 -3 -51 -19 -22 -20 -25 -21 -19
-5 5 16 4 17 -9 6 -18 -15 -21 0 -3 18 14 14 20 45 7 36 -13 -8 -31 5 -23 18
4 7 9 6 14 -2 4 -6 10 -11 14 -11z m-1094 -50 c0 -37 -4 -58 -10 -54 -5 3 -10
22 -10 41 0 19 -4 34 -10 34 -8 0 17 36 28 39 1 1 2 -26 2 -60z m-1150 40 c0
-5 4 -8 8 -5 22 14 106 -113 88 -132 -4 -4 -116 133 -116 142 0 4 5 6 10 6 6
0 10 -5 10 -11z m-3160 -24 c-7 -9 -15 -13 -18 -10 -3 2 1 11 8 20 7 9 15 13
18 10 3 -2 -1 -11 -8 -20z m5385 19 c12 -5 14 -9 4 -14 -15 -10 -41 -1 -33 11
6 11 8 11 29 3z m-5360 -34 c-3 -5 -11 -10 -16 -10 -6 0 -7 5 -4 10 3 6 11 10
16 10 6 0 7 -4 4 -10z m-46 -13 c11 4 10 1 -4 -10 -10 -8 -25 -13 -31 -10 -7
2 -15 0 -19 -6 -3 -7 0 -8 9 -5 23 9 21 -42 -1 -55 -10 -6 -13 -11 -7 -11 13
0 15 -30 2 -30 -5 0 -8 -15 -7 -32 2 -18 1 -53 0 -78 l-3 -45 -9 32 c-5 18
-14 35 -19 38 -14 9 -13 178 1 192 6 6 18 9 27 6 10 -4 13 -2 8 5 -5 8 -1 10
10 5 13 -5 15 -3 9 8 -6 11 -5 11 5 2 7 -6 20 -9 29 -6z m1888 -29 c-3 -8 -6
-5 -6 6 -1 11 2 17 5 13 3 -3 4 -12 1 -19z m3299 -1 c-17 -12 -17 -14 -2 -20
11 -4 16 -18 16 -42 0 -22 -4 -34 -10 -30 -6 4 -10 -9 -10 -32 0 -22 -6 -45
-12 -51 -7 -7 -16 -45 -19 -85 -5 -53 -6 -36 -6 68 1 77 -2 146 -7 153 -4 7
-2 12 8 12 8 0 18 9 21 20 3 11 14 20 23 20 14 0 13 -2 -2 -13z m-4427 -188
c16 -45 14 -48 -9 -14 -22 33 -25 45 -11 45 5 0 14 -14 20 -31z m2754 24 c3
-5 -15 -26 -40 -47 l-46 -40 -33 40 c-19 21 -34 42 -34 47 0 4 33 7 74 7 41 0
77 -3 79 -7z m-3812 -56 c33 -25 54 -97 28 -97 -5 0 -8 -4 -5 -9 6 -10 -37
-31 -65 -31 -11 0 -24 11 -31 25 -6 14 -15 25 -20 25 -4 0 -8 13 -8 29 0 20 8
36 28 50 31 23 50 26 73 8z m3809 -127 c0 -5 5 -10 10 -10 6 0 10 -6 10 -12
-1 -7 -14 3 -30 22 -34 39 -41 61 -10 30 11 -11 20 -24 20 -30z m-110 -182 c1
-46 4 -101 6 -123 2 -22 4 -46 4 -52 0 -7 -1 -23 -1 -35 0 -105 5 -128 27
-128 8 0 14 -6 14 -14 0 -10 19 -16 61 -21 57 -7 63 -5 88 19 15 14 32 26 38
26 11 0 21 44 27 122 1 21 6 41 11 45 4 5 5 2 1 -4 -5 -8 -1 -13 10 -13 13 0
14 -3 4 -15 -9 -10 -9 -15 -1 -15 7 0 11 -21 11 -55 0 -51 2 -56 31 -70 67
-35 72 -140 8 -186 -58 -41 -129 -18 -156 50 l-14 36 -397 -5 c-253 -3 -403
-1 -414 5 -10 5 -18 20 -18 33 0 19 5 22 38 22 20 -1 123 1 227 3 105 2 231 5
282 6 78 1 91 3 87 16 -4 8 -14 16 -23 16 -14 1 -14 2 2 6 15 4 17 22 17 186
0 100 3 192 6 205 12 44 21 20 24 -60z m-560 -38 c0 -16 -4 -30 -9 -30 -13 0
-21 27 -15 45 10 25 24 17 24 -15z m296 -190 c-1 -36 -5 -45 -21 -48 -16 -3
-18 -1 -7 9 6 7 12 38 13 69 0 39 3 49 9 34 4 -11 7 -40 6 -64z m121 4 c-3 -3
-12 -4 -19 -1 -8 3 -5 6 6 6 11 1 17 -2 13 -5z m-1769 -108 c62 -32 83 -94 52
-151 -27 -51 -103 -71 -148 -39 -28 19 -38 39 -47 92 -6 40 -5 45 30 77 40 38
70 43 113 21z m1472 -7 c-55 -25 -100 -35 -100 -22 0 5 10 10 23 11 13 1 39 8
58 16 19 9 41 15 49 15 8 0 -5 -9 -30 -20z m-995 -266 c18 3 22 1 16 -7 -9
-11 26 -31 144 -82 22 -10 50 -26 61 -36 12 -10 28 -18 35 -16 8 2 13 -2 12
-9 -2 -7 3 -10 11 -7 14 5 91 -31 114 -53 7 -7 19 -13 26 -13 7 0 23 -9 36
-20 13 -11 20 -20 17 -20 -11 0 -270 130 -277 138 -3 4 -12 8 -20 10 -8 2 -61
26 -118 53 -57 27 -109 46 -115 43 -7 -4 -9 -4 -5 1 4 4 0 14 -10 21 -14 12
-12 12 16 3 18 -6 44 -9 57 -6z m315 -33 c-8 -5 -19 -10 -25 -10 -5 0 -3 5 5
10 8 5 20 10 25 10 6 0 3 -5 -5 -10z m-61 -24 c-14 -12 -69 -35 -69 -28 0 4
12 13 28 19 28 11 48 16 41 9z m421 -20 c0 -2 -7 -7 -16 -10 -8 -3 -12 -2 -9
4 6 10 25 14 25 6z m-1139 -629 c-10 -9 -11 -8 -5 6 3 10 9 15 12 12 3 -3 0
-11 -7 -18z m934 -37 c7 -12 -44 -5 -56 7 -6 6 1 8 21 5 17 -2 33 -8 35 -12z
m40 -70 c3 -6 -1 -7 -9 -4 -18 7 -21 14 -7 14 6 0 13 -4 16 -10z"/>
<path d="M4928 7968 c-3 -7 -2 -49 1 -93 6 -75 8 -80 38 -101 18 -12 29 -24
26 -28 -4 -3 -1 -6 6 -6 7 0 29 -18 49 -39 20 -22 55 -50 77 -62 22 -13 63
-35 91 -51 28 -15 59 -37 69 -48 10 -11 27 -20 38 -20 19 0 192 93 201 109 13
20 -9 33 -349 221 -96 53 -238 130 -240 130 -2 0 -5 -6 -7 -12z"/>
<path d="M4789 7935 c-32 -18 -90 -50 -130 -72 -208 -112 -356 -194 -374 -207
-20 -15 -20 -15 4 -33 67 -49 186 -111 189 -99 2 7 26 26 55 41 29 16 61 38
73 49 33 33 60 53 81 60 17 5 53 39 115 106 33 36 56 37 61 3 2 -15 4 19 3 76
0 60 -5 105 -11 107 -5 1 -35 -13 -66 -31z"/>
<path d="M4104 7554 c-43 -25 -127 -70 -186 -101 l-108 -55 0 -103 c0 -85 3
-104 16 -109 31 -12 52 -5 113 34 84 55 312 174 440 231 l35 15 -90 49 c-49
26 -101 56 -115 66 -26 18 -26 18 -105 -27z"/>
<path d="M5530 7541 c-124 -68 -158 -91 -138 -91 9 0 79 -30 154 -66 75 -36
143 -63 151 -60 9 4 11 2 7 -6 -5 -8 -2 -9 10 -5 19 7 70 -25 59 -37 -6 -5
118 -66 162 -80 36 -10 43 5 46 102 3 105 12 93 -106 157 -111 60 -178 97
-210 117 -16 10 -34 17 -40 17 -5 -1 -48 -22 -95 -48z m39 -148 c2 -2 0 -3 -6
-3 -6 0 -21 9 -34 21 l-24 20 30 -17 c17 -10 32 -19 34 -21z"/>
<path d="M4415 7420 c-16 -17 -15 -18 19 -6 45 16 50 21 21 22 -13 1 -31 -6
-40 -16z"/>
<path d="M5230 7376 c0 -2 9 -6 20 -9 11 -3 18 -1 14 4 -5 9 -34 13 -34 5z"/>
<path d="M4574 7358 c-4 -7 -3 -8 4 -4 6 4 35 -8 64 -27 51 -32 88 -50 88 -43
0 5 -136 86 -144 86 -2 0 -8 -5 -12 -12z"/>
<path d="M5183 7345 c0 -8 4 -12 9 -9 5 3 6 10 3 15 -9 13 -12 11 -12 -6z"/>
<path d="M6050 7273 c0 -117 11 -125 99 -77 85 47 96 58 68 72 -12 6 -55 29
-94 51 l-73 40 0 -86z"/>
<path d="M3715 7341 c-6 -5 -43 -26 -83 -47 -45 -24 -68 -40 -60 -45 7 -4 16
-5 22 -2 5 3 6 1 3 -4 -4 -6 17 -23 49 -39 77 -39 88 -30 92 70 3 72 -2 87
-23 67z"/>
<path d="M5071 7299 c-19 -10 -39 -26 -44 -34 -7 -13 -4 -15 16 -9 19 4 28 1
36 -15 10 -18 9 -20 -6 -14 -15 5 -15 3 2 -10 24 -20 39 -22 29 -4 -4 6 3 1
16 -12 30 -31 104 -63 126 -54 11 4 15 2 11 -4 -4 -6 3 -8 18 -5 14 2 27 8 30
12 3 5 -4 6 -15 3 -12 -3 -20 0 -20 8 0 7 3 9 7 6 7 -7 33 11 33 23 0 4 -11
12 -24 18 -13 6 -27 19 -30 30 -4 10 -18 25 -31 32 -14 8 -21 16 -16 19 5 4
-10 7 -35 7 -24 1 -50 6 -56 12 -9 7 -23 4 -47 -9z m29 -13 c0 -3 -4 -8 -10
-11 -5 -3 -10 -1 -10 4 0 6 5 11 10 11 6 0 10 -2 10 -4z m195 -96 c3 -5 -3
-10 -15 -10 -12 0 -18 5 -15 10 3 6 10 10 15 10 5 0 12 -4 15 -10z m-100 -20
c3 -6 -1 -7 -9 -4 -18 7 -21 14 -7 14 6 0 13 -4 16 -10z m45 0 c-8 -5 -19 -10
-25 -10 -5 0 -3 5 5 10 8 5 20 10 25 10 6 0 3 -5 -5 -10z"/>
<path d="M4593 7277 c12 -12 34 -29 50 -36 29 -16 38 -38 10 -26 -10 5 -26 8
-35 9 -10 0 -18 5 -18 11 0 6 -9 11 -21 12 -21 2 -21 2 1 -17 13 -11 27 -17
33 -13 5 3 7 0 5 -8 -3 -8 -14 -14 -25 -14 -12 0 -24 -3 -28 -6 -3 -4 2 -6 12
-5 10 0 17 -4 16 -11 -2 -7 4 -10 12 -7 8 4 12 10 9 16 -3 5 0 8 7 7 12 -2 63
16 79 29 2 2 -2 8 -10 13 -11 7 -5 8 20 4 29 -5 23 0 -30 25 -35 18 -74 34
-87 36 l-22 4 22 -23z m57 -71 c0 -3 -4 -8 -10 -11 -5 -3 -10 -1 -10 4 0 6 5
11 10 11 6 0 10 -2 10 -4z"/>
<path d="M5730 7296 c0 -2 7 -7 16 -10 8 -3 12 -2 9 4 -6 10 -25 14 -25 6z"/>
<path d="M3343 7149 c-95 -50 -173 -95 -173 -98 0 -4 54 -33 120 -65 l119 -59
48 31 c26 16 85 49 131 72 64 33 82 46 82 63 0 12 3 32 6 44 5 19 -4 26 -73
59 -43 21 -80 39 -83 41 -3 1 -83 -38 -177 -88z"/>
<path d="M4030 7230 c-8 -5 -10 -10 -5 -10 6 0 17 5 25 10 8 5 11 10 5 10 -5
0 -17 -5 -25 -10z"/>
<path d="M6250 7220 c-14 -11 -52 -31 -85 -45 l-60 -25 3 -44 4 -44 76 -37
c43 -21 100 -49 129 -62 l52 -24 115 53 c64 29 115 57 113 61 -1 5 -34 25 -72
46 -39 21 -108 59 -155 86 -47 26 -87 49 -90 51 -3 1 -17 -6 -30 -16z"/>
<path d="M4540 7220 c-13 -8 -12 -10 3 -10 9 0 17 5 17 10 0 12 -1 12 -20 0z"/>
<path d="M3923 7171 c-34 -16 -41 -23 -36 -40 3 -12 10 -21 15 -21 5 0 6 4 3
10 -3 5 6 12 20 16 14 3 25 10 25 15 0 5 -8 6 -17 3 -10 -3 -6 2 10 11 15 8
27 18 27 20 0 7 0 7 -47 -14z"/>
<path d="M4758 7160 c-27 -14 -48 -27 -48 -30 0 -3 21 -11 46 -18 26 -7 60
-22 75 -33 l29 -20 0 48 c0 42 -4 50 -28 63 -25 14 -30 14 -74 -10z"/>
<path d="M4963 7171 c-30 -15 -33 -20 -33 -65 0 -46 1 -48 18 -34 9 9 28 19
42 23 14 4 30 11 35 15 17 12 52 18 65 10 7 -4 -23 -21 -74 -41 -47 -18 -86
-36 -86 -39 0 -3 24 -11 53 -18 28 -7 84 -28 122 -47 71 -35 101 -37 134 -11
7 6 32 18 54 27 l41 16 -119 60 c-66 33 -143 74 -170 90 -49 29 -51 29 -82 14z
m104 -37 c-3 -3 -12 -4 -19 -1 -8 3 -5 6 6 6 11 1 17 -2 13 -5z"/>
<path d="M5339 7129 c14 -5 31 -15 38 -21 7 -6 13 -6 13 -1 0 11 -44 33 -63
32 -7 0 -1 -5 12 -10z"/>
<path d="M4585 7074 c-44 -25 -88 -47 -97 -50 -26 -9 -31 -34 -7 -34 11 0 30
-7 42 -15 48 -31 96 -27 197 16 52 23 99 45 104 50 5 4 -4 13 -20 19 -16 7
-53 23 -82 36 -29 13 -53 24 -55 23 -1 0 -38 -20 -82 -45z"/>
<path d="M3910 7100 c-8 -5 -12 -12 -9 -15 4 -3 12 1 19 10 14 17 11 19 -10 5z"/>
<path d="M5435 7100 c5 -9 2 -10 -11 -6 -11 3 -25 2 -33 -3 -9 -6 -4 -8 17 -7
35 2 49 11 31 22 -8 5 -10 3 -4 -6z"/>
<path d="M5604 7075 c-10 -8 -26 -15 -35 -15 -9 0 -36 -9 -59 -19 l-43 -19 44
-22 c153 -77 136 -72 171 -53 79 46 76 43 46 43 -15 0 -30 5 -33 10 -4 6 5 10
20 10 14 0 24 4 20 9 -3 6 3 14 12 20 10 6 13 11 8 11 -6 0 -21 -7 -33 -16
-12 -8 -27 -12 -32 -9 -6 3 -10 -1 -10 -9 0 -15 -37 -42 -46 -33 -6 6 38 54
56 60 8 3 3 6 -13 6 -15 1 -41 -6 -57 -14 -16 -8 -37 -12 -46 -8 -12 4 -15 3
-10 -5 5 -8 1 -10 -10 -5 -11 4 -13 8 -6 11 7 2 10 8 6 13 -3 5 3 9 13 9 16 0
77 39 62 40 -3 0 -14 -7 -25 -15z m-44 -82 c0 -7 -39 17 -46 28 -3 6 5 3 20
-6 14 -10 26 -19 26 -22z m110 -37 c0 -2 -7 -7 -16 -10 -8 -3 -12 -2 -9 4 6
10 25 14 25 6z"/>
<path d="M3912 7073 c-7 -2 -17 -13 -22 -24 -9 -15 -7 -19 5 -19 9 0 14 4 10
10 -3 5 7 16 22 24 26 14 14 21 -15 9z"/>
<path d="M5750 7070 c0 -5 7 -10 16 -10 8 0 13 -4 10 -9 -4 -5 4 -7 16 -3 16
4 18 7 8 10 -8 3 -23 9 -32 14 -12 5 -18 5 -18 -2z"/>
<path d="M5417 7058 c-8 -5 -5 -8 8 -8 11 0 27 5 35 10 12 7 10 9 -8 7 -13 -1
-28 -5 -35 -9z"/>
<path d="M3956 7046 c-44 -14 -40 -21 19 -31 22 -4 54 -15 70 -24 43 -24 127
-27 146 -5 13 16 12 16 -9 5 -17 -9 -22 -9 -20 0 2 7 -16 17 -40 23 -23 6 -46
16 -50 22 -4 5 -16 10 -27 11 -11 0 -27 3 -35 5 -8 3 -33 0 -54 -6z m51 -22
c-3 -3 -12 -4 -19 -1 -8 3 -5 6 6 6 11 1 17 -2 13 -5z m43 -4 c-8 -5 -19 -10
-25 -10 -5 0 -3 5 5 10 8 5 20 10 25 10 6 0 3 -5 -5 -10z"/>
<path d="M3559 6973 l-115 -57 118 -58 c76 -38 130 -58 153 -58 l35 0 0 88 0
87 -34 28 c-19 15 -37 27 -39 27 -2 0 -55 -26 -118 -57z"/>
<path d="M5908 7011 c-2 -4 -43 -25 -93 -46 -49 -21 -98 -42 -109 -47 -29 -15
186 -121 233 -114 18 2 37 8 41 13 4 4 6 43 3 85 -5 75 -7 78 -39 97 -18 11
-34 16 -36 12z"/>
<path d="M6056 6997 l-29 -24 9 -89 c9 -86 10 -89 33 -86 13 1 73 29 133 61
l109 58 -100 51 c-55 29 -106 52 -113 52 -7 0 -26 -11 -42 -23z"/>
<path d="M3840 6997 c-23 -12 -25 -18 -28 -99 -4 -124 2 -126 158 -51 65 32
119 60 119 63 1 6 -145 68 -169 72 -8 2 -21 9 -28 16 -17 15 -21 15 -52 -1z"/>
<path d="M4815 6992 c-17 -9 -59 -30 -94 -46 l-62 -28 73 -37 73 -36 28 19
c25 18 27 25 27 83 0 35 -3 63 -7 62 -5 0 -22 -8 -38 -17z"/>
<path d="M4930 6944 c0 -63 1 -65 31 -78 29 -12 37 -11 102 21 82 40 84 36
-50 89 l-83 33 0 -65z"/>
<path d="M4188 6971 c-52 -30 -77 -51 -38 -32 68 33 90 46 90 53 0 5 -1 8 -2
7 -2 -1 -24 -13 -50 -28z"/>
<path d="M3105 6974 c-13 -9 -38 -14 -70 -13 -54 2 -33 13 -333 -160 l-62 -36
2 -90 3 -89 65 -12 c36 -7 68 -13 72 -13 4 -1 8 16 10 37 3 36 5 38 95 82 50
25 99 52 110 61 10 9 50 29 88 44 39 15 100 43 137 61 37 19 74 34 82 34 39 0
17 21 -69 63 -52 26 -98 47 -102 47 -4 0 -17 -7 -28 -16z m145 -54 c0 -9 -82
-59 -194 -119 -69 -36 -66 -36 -65 -13 0 12 38 36 122 79 128 65 137 69 137
53z"/>
<path d="M4331 6947 l-74 -40 47 -18 c27 -10 57 -26 67 -35 18 -17 23 -15 99
23 90 46 90 51 -2 79 -31 10 -55 21 -52 26 9 14 -9 7 -85 -35z"/>
<path d="M6552 6955 c-130 -62 -129 -58 -29 -105 48 -22 94 -40 102 -40 8 0
15 -4 15 -9 0 -5 14 -12 30 -16 17 -4 30 -10 30 -13 0 -4 18 -13 39 -19 22 -7
57 -24 78 -39 21 -14 64 -39 95 -55 49 -25 58 -34 64 -63 5 -31 9 -35 33 -31
14 2 42 7 62 10 l37 5 7 86 c5 61 3 89 -5 100 -7 8 -70 46 -139 86 -69 39
-139 80 -155 91 -24 17 -43 20 -98 19 -54 -2 -70 0 -74 13 -8 20 -7 20 -92
-20z m94 -91 c67 -31 125 -62 128 -70 9 -23 -25 -16 -79 16 -27 16 -80 45
-117 64 -62 33 -79 46 -61 46 3 0 62 -25 129 -56z"/>
<path d="M5293 6947 l-62 -32 75 -39 c64 -33 79 -37 97 -27 12 6 49 20 81 30
67 21 69 17 -38 75 -61 33 -77 32 -153 -7z"/>
<path d="M4555 6874 c-27 -13 -63 -28 -80 -34 l-30 -11 70 -34 c39 -19 78 -35
87 -35 9 0 20 -5 23 -11 12 -18 -75 0 -145 31 -36 16 -75 32 -87 35 -13 4 -23
11 -23 16 0 5 -4 9 -10 9 -5 0 -34 11 -64 25 -60 27 -73 29 -96 15 -11 -7 -2
-15 41 -34 31 -13 75 -29 98 -36 47 -12 99 -41 152 -82 61 -48 90 -51 176 -18
79 31 123 62 123 89 0 10 -26 29 -68 48 -110 53 -111 53 -167 27z m91 -79
c-11 -8 -24 -15 -30 -15 -5 0 -1 7 10 15 10 8 24 14 29 14 6 0 1 -6 -9 -14z"/>
<path d="M2642 6273 l3 -278 74 -8 c40 -4 74 -7 75 -5 2 2 0 125 -2 274 l-4
270 -44 12 c-24 7 -58 12 -74 12 l-30 0 2 -277z"/>
<path d="M7037 6540 c-27 -5 -52 -12 -55 -15 -4 -4 -8 -128 -10 -277 l-3 -271
38 6 c21 4 53 7 71 7 l32 0 0 280 c0 218 -3 280 -12 279 -7 -1 -35 -5 -61 -9z"/>
<path d="M3020 6366 c0 -2 7 -7 16 -10 8 -3 12 -2 9 4 -6 10 -25 14 -25 6z"/>
<path d="M7038 5956 l-68 -8 0 -205 c0 -161 3 -203 13 -197 9 6 9 5 0 -7 -8
-10 -13 -62 -14 -158 0 -78 1 -144 3 -146 1 -1 35 -1 75 2 l72 6 0 143 1 144
-33 1 c-17 1 -43 4 -57 9 l-25 7 28 12 c16 6 39 11 51 11 23 0 23 3 28 123 2
67 2 156 -1 197 l-6 75 -67 -9z"/>
<path d="M2641 5785 c1 -98 4 -186 6 -196 4 -13 14 -19 34 -19 22 0 29 -5 29
-20 0 -16 -7 -20 -35 -20 l-35 0 2 -147 3 -148 63 -3 c35 -2 69 1 76 7 9 7 12
85 11 298 l0 288 -37 3 c-51 4 -49 22 2 22 l40 0 0 44 c0 25 -4 47 -9 50 -5 3
-41 9 -80 12 l-72 7 2 -178z"/>
<path d="M2640 4715 l0 -445 80 0 80 0 0 445 0 445 -80 0 -80 0 0 -445z"/>
<path d="M6964 5129 c3 -17 6 -220 6 -451 l0 -419 73 3 72 3 2 448 3 447 -81
0 -81 0 6 -31z"/>
<path d="M6770 4175 c0 -25 1 -25 90 -25 89 0 90 0 90 25 0 25 -1 25 -90 25
-89 0 -90 0 -90 -25z"/>
<path d="M2946 3158 c4 -13 13 -45 19 -73 l12 -50 49 2 c37 1 53 7 66 23 31
39 20 84 -14 53 -10 -9 -18 -11 -18 -5 0 14 -86 72 -106 72 -11 0 -13 -6 -8
-22z m148 -60 c-1 -13 -3 -26 -3 -30 -1 -5 -18 -8 -38 -8 -31 1 -35 3 -21 11
10 5 21 10 25 11 5 0 14 9 21 19 17 24 19 24 16 -3z"/>
<path d="M6747 3141 c-20 -10 -34 -21 -30 -24 3 -4 0 -7 -7 -7 -7 0 -10 -3 -7
-6 4 -4 14 -1 23 7 14 11 16 10 12 -11 -1 -14 -7 -28 -12 -32 -15 -10 -39 21
-33 42 3 11 1 18 -4 14 -5 -3 -9 -18 -9 -34 0 -36 32 -60 77 -60 36 0 42 8 60
88 10 39 9 42 -11 41 -12 0 -38 -9 -59 -18z"/>
<path d="M4396 2422 c-3 -5 1 -9 9 -9 8 0 12 4 9 9 -3 4 -7 8 -9 8 -2 0 -6 -4
-9 -8z"/>
<path d="M4360 2400 c-13 -9 -13 -10 0 -10 12 0 12 -2 2 -9 -26 -16 16 -21 45
-6 24 13 25 15 8 16 -11 1 -26 1 -34 0 -7 -2 -10 2 -6 8 8 13 4 14 -15 1z m35
-20 c-3 -5 -12 -10 -18 -10 -7 0 -6 4 3 10 19 12 23 12 15 0z"/>
<path d="M5249 2349 l-24 -20 28 17 c15 9 27 18 27 20 0 8 -8 4 -31 -17z"/>
<path d="M5269 2327 c6 -8 7 -18 3 -22 -4 -5 -1 -5 6 -1 10 6 10 11 1 22 -6 8
-14 14 -16 14 -3 0 0 -6 6 -13z"/>
<path d="M5145 2290 c-3 -6 1 -7 9 -4 18 7 21 14 7 14 -6 0 -13 -4 -16 -10z"/>
<path d="M4570 2276 c0 -2 7 -6 15 -10 8 -3 15 -1 15 4 0 6 -7 10 -15 10 -8 0
-15 -2 -15 -4z"/>
<path d="M4680 2270 c-9 -6 -10 -10 -3 -10 6 0 15 5 18 10 8 12 4 12 -15 0z"/>
<path d="M5100 2270 c-13 -9 -13 -10 0 -10 10 0 11 -3 4 -8 -9 -5 -8 -10 1
-19 10 -9 12 -5 11 18 0 16 -1 29 -1 29 0 0 -7 -5 -15 -10z"/>
<path d="M4882 2170 c-6 -11 -8 -21 -3 -25 5 -3 13 4 16 16 9 28 2 33 -13 9z"/>
<path d="M1933 6193 c-19 -7 -16 -51 4 -62 25 -13 53 4 53 33 0 29 -25 42 -57
29z"/>
<path d="M7803 6174 c-8 -20 8 -48 30 -52 22 -5 42 35 26 54 -16 19 -48 18
-56 -2z"/>
<path d="M5815 5516 l-110 -21 -2 -64 -2 -63 52 6 c29 4 87 11 130 17 l77 11
0 69 c0 80 14 76 -145 45z"/>
<path d="M5788 5347 l-88 -9 0 -54 0 -53 130 2 130 2 0 63 0 62 -42 -1 c-24
-1 -82 -6 -130 -12z"/>
<path d="M5605 5325 c-5 -2 -36 -6 -67 -10 l-58 -6 0 -55 c0 -35 4 -54 12 -54
6 0 51 5 100 11 l88 12 0 53 0 54 -32 -1 c-18 0 -37 -2 -43 -4z"/>
<path d="M1560 4680 c0 -5 5 -10 10 -10 6 0 10 5 10 10 0 6 -4 10 -10 10 -5 0
-10 -4 -10 -10z"/>
<path d="M1920 4525 c-15 -18 2 -45 30 -45 23 0 34 28 19 46 -15 18 -33 18
-49 -1z"/>
<path d="M7806 4514 c-7 -19 10 -44 29 -44 19 0 36 25 29 44 -3 9 -16 16 -29
16 -13 0 -26 -7 -29 -16z"/>
<path d="M2164 4255 c-10 -8 -14 -15 -8 -15 6 0 17 7 24 15 16 19 9 19 -16 0z"/>
<path d="M2021 4191 c-10 -6 -9 -10 3 -14 8 -3 18 -2 21 3 8 13 -9 20 -24 11z"/>
<path d="M7590 4271 c0 -7 -5 -9 -12 -5 -7 5 -8 3 -3 -5 5 -9 10 -10 18 -2 6
6 8 14 4 18 -4 3 -7 1 -7 -6z"/>
<path d="M7601 4247 c-8 -10 -7 -14 4 -14 8 0 11 5 8 10 -4 6 1 8 11 4 10 -4
15 -3 11 3 -8 14 -20 12 -34 -3z"/>
<path d="M7660 4205 c-15 -18 0 -20 19 -2 12 10 13 9 7 -7 -6 -16 -4 -17 9 -6
13 11 13 15 3 21 -18 12 -24 11 -38 -6z"/>
<path d="M2240 4081 c0 -5 5 -13 10 -16 6 -3 10 -2 10 4 0 5 -4 13 -10 16 -5
3 -10 2 -10 -4z"/>
</g>
</svg>
